<?xml version="1.0" encoding="iso-8859-1"?>
<!-- Generator: Adobe Illustrator 19.0.0, SVG Export Plug-In . SVG Version: 6.00 Build 0)  -->
<svg version="1.1" id="Capa_1" xmlns="http://www.w3.org/2000/svg" xmlns:xlink="http://www.w3.org/1999/xlink" x="0px" y="0px"
	 viewBox="0 0 489.3 489.3" style="enable-background:new 0 0 489.3 489.3;" xml:space="preserve">
<g>
	<g>
		<g>
			<path d="M119.2,128.1L119.2,128.1L370,128c5.4,0,10.1-4.7,10.1-10.1s-4.3-10.1-10.1-10.1l0,0l-250.8,0.1
				c-5.4,0-10.1,4.7-10.1,10.1C109.1,123.5,113.4,128.1,119.2,128.1z"/>
			<path d="M119.2,181.3L119.2,181.3l250.8-0.1c5.4,0,10.1-4.7,10.1-10.1c0-5.4-4.3-10.1-10.1-10.1l0,0l-250.8,0.1
				c-5.4,0-10.1,4.7-10.1,10.1C109.1,177,113.8,181.3,119.2,181.3z"/>
			<path d="M119.2,234.9L119.2,234.9l250.8-0.1c5.4,0,10.1-4.7,10.1-10.1c0-5.4-4.3-10.1-10.1-10.1l0,0l-250.8,0.1
				c-5.4,0-10.1,4.7-10.1,10.1C109.1,230.2,113.8,234.9,119.2,234.9z"/>
			<path d="M370,268.2L370,268.2l-250.8,0.1c-5.4,0-10.1,4.7-10.1,10.1s4.3,10.1,10.1,10.1l0,0l250.8-0.1c5.4,0,10.1-4.7,10.1-10.1
				C380.1,272.5,375.4,268.2,370,268.2z"/>
			<path d="M260.9,321.8L260.9,321.8l-141.7,0.1c-5.4,0-10.1,4.7-10.1,10.1s4.3,10.1,10.1,10.1l0,0l141.7-0.1
				c5.4,0,10.1-4.7,10.1-10.1C271,326,266.7,321.8,260.9,321.8z"/>
			<path d="M489.2,23.7c0-13.2-10.5-23.7-23.7-23.7H23.7C10.5,0,0,10.5,0,23.7v441.9c0,13.2,10.5,23.7,23.7,23.7h441.9
				c13.2,0,23.7-10.5,23.7-23.7V23.7H489.2z M261.3,451.9h-32.6l0,0c-5.4,0-10.1-4.3-10.1-10.1c0-5.4,4.3-10.1,10.1-10.1h32.6l0,0
				c5.4,0,10.1,4.3,10.1,10.1S266.7,451.9,261.3,451.9z M433.3,387.9c0,1.6-1.6,3.1-3.1,3.1H58.6c-1.6,0-3.1-1.2-3.1-3.1V62.1
				c0-1.6,1.6-3.1,3.1-3.1h371.6c1.6,0,3.1,1.2,3.1,3.1V387.9z"/>
		</g>
	</g>
</g>
<g>
</g>
<g>
</g>
<g>
</g>
<g>
</g>
<g>
</g>
<g>
</g>
<g>
</g>
<g>
</g>
<g>
</g>
<g>
</g>
<g>
</g>
<g>
</g>
<g>
</g>
<g>
</g>
<g>
</g>
</svg>
